<?xml version="1.0" encoding="UTF-8" standalone="no"?>
<svg width="72px" height="62px" viewBox="0 0 72 62" version="1.1" xmlns="http://www.w3.org/2000/svg" xmlns:xlink="http://www.w3.org/1999/xlink" xmlns:sketch="http://www.bohemiancoding.com/sketch/ns">
    <!-- Generator: Sketch 3.3 (11970) - http://www.bohemiancoding.com/sketch -->
    <title>noun_148026_cc</title>
    <desc>Created with Sketch.</desc>
    <defs/>
    <g id="Page-1" stroke="none" stroke-width="1" fill="none" fill-rule="evenodd" sketch:type="MSPage">
        <g id="noun_148026_cc" sketch:type="MSLayerGroup" fill="#000000">
            <path d="M66.304,5.231 C60.192,-0.881 50.625,-1.259 44.978,4.388 L37.97,11.396 L37.969,11.397 L17.643,31.724 C15.833,33.534 14.836,35.94 14.836,38.5 C14.836,41.06 15.833,43.466 17.643,45.276 C19.453,47.086 21.859,48.083 24.419,48.083 C26.979,48.083 29.385,47.086 31.195,45.276 L52.466,24.006 C53.23,23.242 53.23,22.003 52.466,21.238 C51.702,20.474 50.463,20.474 49.699,21.238 L28.427,42.509 C27.356,43.58 25.932,44.169 24.418,44.169 C22.904,44.169 21.48,43.579 20.409,42.508 C19.338,41.437 18.748,40.014 18.748,38.499 C18.748,36.985 19.338,35.561 20.409,34.49 L40.736,14.163 C40.736,14.163 40.737,14.162 40.737,14.161 L47.745,7.154 C51.867,3.032 58.95,3.411 63.536,7.997 C68.122,12.583 68.501,19.667 64.379,23.788 L48.158,40.012 C48.157,40.013 48.157,40.014 48.156,40.015 L35.784,52.387 C28.7,59.472 17.172,59.471 10.088,52.387 C6.656,48.955 4.766,44.392 4.766,39.539 C4.766,34.685 6.656,30.123 10.088,26.691 L29.383,7.396 C30.147,6.632 30.147,5.393 29.383,4.629 C28.619,3.865 27.38,3.865 26.616,4.629 L7.321,23.923 C3.15,28.094 0.853,33.64 0.853,39.538 C0.853,45.437 3.15,50.982 7.321,55.153 C11.626,59.458 17.281,61.61 22.936,61.61 C28.591,61.61 34.246,59.458 38.551,55.153 L51.13,42.575 C51.13,42.575 51.13,42.574 51.131,42.574 L67.148,26.557 C72.795,20.91 72.416,11.343 66.304,5.231 L66.304,5.231 Z" id="Shape" sketch:type="MSShapeGroup"/>
        </g>
    </g>
</svg>