<svg width="648px" height="648px" viewBox="0 0 648 648" version="1.1" xmlns="http://www.w3.org/2000/svg" xmlns:xlink="http://www.w3.org/1999/xlink">
    <g stroke="none" stroke-width="1" fill="none" fill-rule="evenodd">
		<g transform="translate(16.000000, 16.000000)">
			<path d="M275.22,123.227 C291.286,107.929 314.138,102.762 335.695,102.118 C358.494,101.913 381.284,102.037 404.083,102.046 C404.173,126.097 404.181,150.157 404.074,174.207 C389.34,174.181 374.596,174.243 359.862,174.181 C350.519,173.599 340.925,180.681 339.227,189.943 C339.003,206.036 339.146,222.138 339.155,238.232 C360.765,238.321 382.375,238.205 403.984,238.286 C402.402,261.567 399.514,284.742 396.126,307.827 C377.038,308.006 357.939,307.809 338.852,307.926 C338.682,376.591 338.941,445.256 338.718,513.921 C310.366,514.037 281.997,513.867 253.646,514.001 C253.109,445.327 253.69,376.618 253.351,307.935 C239.519,307.791 225.679,308.034 211.848,307.819 C211.901,284.734 211.866,261.65 211.874,238.573 C225.696,238.404 239.528,238.609 253.351,238.475 C253.771,216.033 252.93,193.565 253.789,171.142 C255.175,153.384 261.943,135.493 275.22,123.227 L275.22,123.227 L275.22,123.227 Z" fill="#fff"/>
<!--			<circle stroke="#000000" stroke-width="32" cx="308" cy="308" r="308"></circle> -->
		</g>
    </g>
</svg>