<svg width="648px" height="648px" viewBox="0 0 648 648" version="1.1" xmlns="http://www.w3.org/2000/svg" xmlns:xlink="http://www.w3.org/1999/xlink">
    <g stroke="none" stroke-width="1" fill="none" fill-rule="evenodd">
		<g transform="translate(16.000000, 16.000000)" stroke="#000000">
<!--			<circle stroke="#000000" stroke-width="32" cx="308" cy="308" r="308"></circle> -->
			<path d="M483.465486,185.758854 L117,185.758854 L117,430.241146 L499,430.241146 L499,185.758854 L483.465486,185.758854 L483.465486,185.758854 Z M468.174595,201.035414 L320.596714,348.613295 C313.86127,355.348739 302.1244,355.348739 295.388956,348.613295 L147.782413,201.035414 L468.160264,201.035414 L468.174595,201.035414 Z M132.276561,207.125975 L231.48822,306.323304 L132.276561,405.534964 L132.276561,207.111645 L132.276561,207.125975 Z M144.472014,414.964586 L242.307923,317.143007 L284.597914,359.418667 C290.846113,365.666867 299.157938,369.120573 308,369.120573 C316.842062,369.120573 325.153887,365.666867 331.402086,359.418667 L373.692077,317.128676 L471.513655,414.950255 L144.457683,414.950255 L144.472014,414.964586 Z M483.723439,405.549295 L384.51178,306.323304 L483.723439,207.097314 L483.723439,405.549295 L483.723439,405.549295 Z" stroke-width="10" fill="#aaa" stroke="#aaa"/>
		</g>
    </g>
</svg>